<?xml version="1.0" standalone="no"?>
<!DOCTYPE svg PUBLIC "-//W3C//DTD SVG 20010904//EN"
 "http://www.w3.org/TR/2001/REC-SVG-20010904/DTD/svg10.dtd">
<svg version="1.0" xmlns="http://www.w3.org/2000/svg"
 width="512.000000pt" height="512.000000pt" viewBox="0 0 512.000000 512.000000"
 preserveAspectRatio="xMidYMid meet">

<g transform="translate(0.000000,512.000000) scale(0.100000,-0.100000)"
fill="#000000" stroke="none">
<path d="M1801 4464 c-151 -40 -208 -99 -364 -371 -152 -265 -157 -268 -157
-78 0 141 -10 185 -45 199 -9 3 -183 6 -386 6 l-370 0 -24 -25 c-24 -23 -25
-29 -25 -167 l0 -144 -69 -10 c-177 -28 -317 -165 -351 -343 -14 -73 -14
-2468 0 -2542 32 -169 170 -307 340 -339 73 -14 4347 -14 4420 0 170 32 308
170 340 339 14 74 14 2469 0 2542 -34 178 -174 315 -351 343 l-69 10 0 101 c0
114 -12 139 -72 150 -18 3 -151 5 -295 3 -324 -4 -306 5 -311 -153 l-4 -105
-101 0 -102 0 -122 213 c-158 275 -214 331 -368 372 -86 22 -1431 21 -1514 -1z
m1525 -181 c66 -35 94 -73 225 -300 68 -120 134 -229 146 -243 l21 -25 524 -5
c488 -5 526 -6 561 -24 49 -24 92 -67 120 -120 l22 -41 0 -1265 c0 -1215 -1
-1266 -19 -1300 -26 -49 -74 -98 -121 -123 l-40 -22 -2205 0 c-2131 0 -2206 1
-2240 19 -49 26 -98 74 -123 121 l-22 40 0 1265 0 1265 22 41 c28 53 71 96
120 120 35 18 73 19 561 24 l524 5 21 25 c12 14 78 123 146 242 147 258 179
295 276 319 17 4 347 7 735 6 703 -2 705 -2 746 -24z m-2216 -318 l0 -85 -255
0 -255 0 0 85 0 85 255 0 255 0 0 -85z m3410 -40 l0 -45 -167 2 -168 3 -3 43
-3 42 170 0 171 0 0 -45z"/>
<path d="M2415 3704 c-174 -26 -296 -64 -439 -137 -245 -125 -439 -322 -562
-571 -62 -127 -67 -165 -28 -201 31 -29 70 -32 102 -9 12 8 42 58 66 109 243
520 829 768 1371 582 274 -94 513 -310 639 -577 36 -78 78 -212 90 -290 l7
-44 -115 112 c-107 105 -117 112 -154 112 -48 0 -82 -35 -82 -84 0 -27 26 -57
205 -236 190 -190 207 -204 240 -204 34 0 50 14 241 205 176 177 204 209 204
236 0 49 -34 83 -82 83 -37 0 -47 -7 -162 -120 l-123 -120 -11 77 c-24 172
-93 350 -195 507 -183 281 -472 477 -812 552 -68 15 -339 27 -400 18z"/>
<path d="M1123 2397 c-178 -178 -203 -207 -203 -234 0 -47 38 -87 84 -87 33 0
47 10 154 117 65 64 120 117 123 117 4 0 10 -26 14 -57 16 -139 81 -329 157
-458 234 -399 646 -637 1103 -637 415 -1 783 182 1031 511 62 83 156 257 170
314 8 36 -11 82 -42 96 -63 28 -91 6 -154 -123 -277 -568 -955 -794 -1512
-504 -295 153 -504 430 -573 759 -8 39 -15 75 -15 82 0 6 53 -42 118 -106 102
-100 123 -117 151 -117 45 0 81 38 81 87 0 36 -10 48 -203 240 -194 194 -205
203 -242 203 -37 0 -48 -9 -242 -203z"/>
</g>
</svg>
